<svg viewBox="0 0 96 96" xmlns="http://www.w3.org/2000/svg" xmlns:xlink="http://www.w3.org/1999/xlink" id="Icons_TrainTracks" overflow="hidden"><path d="M91.615 70.028 86.236 61.028 79.165 61.028 76.141 55.028 82.649 55.028 78.465 48.028 72.612 48.028 70.092 43.028 75.476 43.028 71.89 37.028 67.067 37.028 65.051 33.028 69.5 33.028 66.511 28.028 62.531 28.028 61.019 25.028 64.719 25.028 62.328 21.028 59 21.028 57.992 19.028 53.992 19.028 54.832 21.028 41.154 21.028 41.994 19.028 37.994 19.028 36.986 21.028 33.674 21.028 31.283 25.028 34.971 25.028 33.459 28.028 29.49 28.028 26.501 33.028 30.94 33.028 28.925 37.028 24.11 37.028 20.524 43.028 25.9 43.028 23.381 48.028 17.535 48.028 13.351 55.028 19.851 55.028 16.828 61.028 9.764 61.028 4.385 70.028 12.3 70.028 9.115 76.343 17.923 76.343 20.575 70.028 75.424 70.028 78.077 76.343 86.885 76.343 83.7 70.028ZM39.474 25.028 56.515 25.028 57.776 28.028 38.214 28.028ZM36.114 33.028 59.877 33.028 61.558 37.028 34.434 37.028ZM31.914 43.028 64.079 43.028 66.179 48.028 29.814 48.028ZM24.354 61.028 26.875 55.028 69.121 55.028 71.642 61.028Z"/></svg>